<?xml version="1.0" standalone="no"?>
<!DOCTYPE svg PUBLIC "-//W3C//DTD SVG 20010904//EN"
 "http://www.w3.org/TR/2001/REC-SVG-20010904/DTD/svg10.dtd">
<svg version="1.0" xmlns="http://www.w3.org/2000/svg"
 width="16.000000pt" height="16.000000pt" viewBox="0 0 16.000000 16.000000"
 preserveAspectRatio="xMidYMid meet">
<metadata>
Created by potrace 1.11, written by Peter Selinger 2001-2013
</metadata>
<g transform="translate(0.000000,16.000000) scale(0.012121,-0.012121)"
fill="#000000" stroke="none">
<path d="M145 1313 c-26 -7 -75 -41 -98 -67 -47 -56 -47 -59 -47 -587 1 -370
4 -506 13 -528 16 -37 54 -81 92 -106 29 -19 52 -20 539 -23 l509 -3 51 25
c56 27 85 60 104 115 9 25 12 172 12 530 l-1 495 -26 47 c-14 27 -44 60 -67
76 l-41 28 -510 2 c-280 0 -519 -1 -530 -4z"/>
</g>
</svg>
