<?xml version="1.0" encoding="UTF-8"?>
<svg width="13px" height="20px" viewBox="0 0 13 20" version="1.1" xmlns="http://www.w3.org/2000/svg" xmlns:xlink="http://www.w3.org/1999/xlink">
    <!-- Generator: sketchtool 42 (36781) - http://www.bohemiancoding.com/sketch -->
    <title>EC29B7DE-0559-4307-9708-8EAA485A018F</title>
    <desc>Created with sketchtool.</desc>
    <defs></defs>
    <g id="Page-1" stroke="none" stroke-width="1" fill="none" fill-rule="evenodd">
        <g id="glamour-floring-home" transform="translate(-1378.000000, -4263.000000)" fill="#FFFFFF">
            <g id="Group-21" transform="translate(0.000000, 4184.000000)">
                <g id="Group-15-Copy">
                    <g id="Group-9" transform="translate(1132.000000, 60.000000)">
                        <g id="Group-2" transform="translate(246.000000, 19.000000)">
                            <path d="M6.17512531,16.1616341 C6.93053142,16.2383454 7.71331663,15.9879655 8.29191883,15.4093633 L15.4094943,8.29178788 C16.4291163,7.27216589 16.4315505,5.61266984 15.4095058,4.59062515 C14.3895408,3.57066012 12.7303941,3.56858562 11.7083431,4.59063667 L6.17512531,10.1238544 L0.641907556,4.59063667 C-0.380143489,3.56858562 -2.03929014,3.57066012 -3.05925517,4.59062515 C-4.08129986,5.61266984 -4.07886564,7.27216589 -3.05924365,8.29178788 L4.0583318,15.4093633 C4.636934,15.9879655 5.41971921,16.2383454 6.17512531,16.1616341 L6.17512531,16.1616341 Z" id="Combined-Shape-Copy-2" transform="translate(6.175125, 10.000000) rotate(-90.000000) translate(-6.175125, -10.000000) "></path>
                        </g>
                    </g>
                </g>
            </g>
        </g>
    </g>
</svg>