<?xml version="1.0" encoding="UTF-8"?>
<svg width="38px" height="40px" viewBox="0 0 38 40" version="1.1" xmlns="http://www.w3.org/2000/svg" xmlns:xlink="http://www.w3.org/1999/xlink">
    <!-- Generator: sketchtool 42 (36781) - http://www.bohemiancoding.com/sketch -->
    <title>022AB20A-1927-481B-995C-DDA3D7B16EC2</title>
    <desc>Created with sketchtool.</desc>
    <defs></defs>
    <g id="Page-1" stroke="none" stroke-width="1" fill="none" fill-rule="evenodd">
        <g id="glamour-floring-home" transform="translate(-919.000000, -2772.000000)" fill="#C01F1F">
            <g id="Group-12" transform="translate(178.000000, 2469.000000)">
                <path d="M778.36,312.12 L778.36,336.36 C778.36,337.560006 778.060003,338.666662 777.46,339.68 C776.859997,340.693338 776.040005,341.499997 775,342.1 C773.959995,342.700003 772.840006,343 771.64,343 L759.52,343 C758.613329,343 757.746671,342.826668 756.92,342.48 C756.093329,342.133332 755.373336,341.653336 754.76,341.04 L741.64,327.68 L742.72,326.64 C743.440004,325.97333 743.813333,325.64 743.84,325.64 C744.266669,325.346665 744.706664,325.2 745.16,325.2 C745.506668,325.2 745.839998,325.266666 746.16,325.4 C746.186667,325.4 747.399988,326.079993 749.8,327.44 L753.36,329.48 L753.36,309.64 C753.36,308.946663 753.599998,308.353336 754.08,307.86 C754.560002,307.366664 755.159996,307.12 755.88,307.12 C756.600004,307.12 757.193331,307.359998 757.66,307.84 C758.126669,308.320002 758.36,308.919996 758.36,309.64 L758.36,321.36 L760,321.36 L760,305.48 C760,304.786663 760.239998,304.200002 760.72,303.72 C761.200002,303.239998 761.799996,303 762.52,303 C763.240004,303 763.833331,303.239998 764.3,303.72 C764.766669,304.200002 765,304.786663 765,305.48 L765,321.36 L766.64,321.36 L766.64,307.12 C766.64,306.426663 766.879998,305.840002 767.36,305.36 C767.840002,304.879998 768.439996,304.64 769.16,304.64 C769.880004,304.64 770.473331,304.879998 770.94,305.36 C771.406669,305.840002 771.64,306.426663 771.64,307.12 L771.64,321.36 L773.36,321.36 L773.36,312.12 C773.36,311.426663 773.599998,310.840002 774.08,310.36 C774.560002,309.879998 775.159996,309.64 775.88,309.64 C776.600004,309.64 777.193331,309.879998 777.66,310.36 C778.126669,310.840002 778.36,311.426663 778.36,312.12 Z" id="expert-installer-small"></path>
            </g>
        </g>
    </g>
</svg>