<?xml version="1.0" encoding="UTF-8"?>
<svg width="132px" height="132px" viewBox="0 0 132 132" version="1.1" xmlns="http://www.w3.org/2000/svg" xmlns:xlink="http://www.w3.org/1999/xlink">
    <!-- Generator: sketchtool 42 (36781) - http://www.bohemiancoding.com/sketch -->
    <title>2E033FB6-88B4-46ED-AF09-21272B723A9B</title>
    <desc>Created with sketchtool.</desc>
    <defs></defs>
    <g id="Page-1" stroke="none" stroke-width="1" fill="none" fill-rule="evenodd">
        <g id="glamour-floring-home" transform="translate(-258.000000, -949.000000)">
            <g id="Icon1" transform="translate(189.000000, 944.000000)">
                <g id="Group-5" transform="translate(69.000000, 0.000000)">
                    <rect id="Rectangle-3" fill="#C01F1F" x="0" y="5" width="132" height="132" rx="20"></rect>
                    <text id="ion-ios-home---Ionicons" font-family="Ionicons" font-size="100" font-weight="400" fill="#FFFFFF">
                        <tspan x="29" y="88"></tspan>
                    </text>
                    <path d="M29.94,97.215 C29.4899977,97.5850018 29.265,98.0749969 29.265,98.685 C29.265,99.295003 29.5399972,99.7799982 30.09,100.14 C30.6400027,100.500002 31.90999,100.924998 33.9,101.415 C35.8900099,101.905002 37.4349945,102.639995 38.535,103.62 C39.6350055,104.600005 40.185,106.029991 40.185,107.91 C40.185,109.790009 39.480007,111.314994 38.07,112.485 C36.6599929,113.655006 34.8050115,114.24 32.505,114.24 C29.1849834,114.24 26.1950133,113.010012 23.535,110.55 L26.325,107.13 C28.5850113,109.11001 30.6749904,110.1 32.595,110.1 C33.4550043,110.1 34.1299975,109.915002 34.62,109.545 C35.1100024,109.174998 35.355,108.675003 35.355,108.045 C35.355,107.414997 35.0950026,106.915002 34.575,106.545 C34.0549974,106.174998 33.0250077,105.800002 31.485,105.42 C29.0449878,104.839997 27.2600056,104.085005 26.13,103.155 C24.9999943,102.224995 24.435,100.76501 24.435,98.775 C24.435,96.78499 25.1499928,95.2500054 26.58,94.17 C28.0100071,93.0899946 29.7949893,92.55 31.935,92.55 C33.335007,92.55 34.734993,92.7899976 36.135,93.27 C37.535007,93.7500024 38.7549948,94.4299956 39.795,95.31 L37.425,98.73 C35.6049909,97.3499931 33.7250097,96.66 31.785,96.66 C31.0049961,96.66 30.3900022,96.8449981 29.94,97.215 Z M57.195,93.03 L61.875,93.03 L61.875,114 L57.195,114 L57.195,105.75 L48.855,105.75 L48.855,114 L44.175,114 L44.175,93.03 L48.855,93.03 L48.855,101.79 L57.195,101.79 L57.195,93.03 Z M81.285,98.61 C80.084994,97.2899934 78.6100087,96.63 76.86,96.63 C75.1099912,96.63 73.635006,97.2899934 72.435,98.61 C71.234994,99.9300066 70.635,101.524991 70.635,103.395 C70.635,105.265009 71.234994,106.854993 72.435,108.165 C73.635006,109.475007 75.1099912,110.13 76.86,110.13 C78.6100087,110.13 80.084994,109.475007 81.285,108.165 C82.485006,106.854993 83.085,105.265009 83.085,103.395 C83.085,101.524991 82.485006,99.9300066 81.285,98.61 Z M76.845,114.21 C73.7449845,114.21 71.1350106,113.17501 69.015,111.105 C66.8949894,109.03499 65.835,106.460015 65.835,103.38 C65.835,100.299985 66.8949894,97.7250103 69.015,95.655 C71.1350106,93.5849896 73.7449845,92.55 76.845,92.55 C79.9450155,92.55 82.5549894,93.5849896 84.675,95.655 C86.7950106,97.7250103 87.855,100.299985 87.855,103.38 C87.855,106.460015 86.7950106,109.03499 84.675,111.105 C82.5549894,113.17501 79.9450155,114.21 76.845,114.21 Z M106.26,94.905 C107.730007,96.1550062 108.465,98.074987 108.465,100.665 C108.465,103.255013 107.710008,105.149994 106.2,106.35 C104.689992,107.550006 102.385015,108.15 99.285,108.15 L96.495,108.15 L96.495,114 L91.815,114 L91.815,93.03 L99.225,93.03 C102.445016,93.03 104.789993,93.6549937 106.26,94.905 Z M102.825,103.155 C103.385003,102.524997 103.665,101.605006 103.665,100.395 C103.665,99.1849939 103.300004,98.3250025 102.57,97.815 C101.839996,97.3049974 100.705008,97.05 99.165,97.05 L96.495,97.05 L96.495,104.1 L99.645,104.1 C101.205008,104.1 102.264997,103.785003 102.825,103.155 Z" id="SHOP" fill="#FFFFFF"></path>
                    <path d="M28.86,116.612 L28.86,118.256 L24.972,118.256 L24.972,120.068 L28.668,120.068 L28.668,121.712 L24.972,121.712 L24.972,125 L23.1,125 L23.1,116.612 L28.86,116.612 Z M38.248,119.396 C38.248,120.740007 37.7160053,121.607998 36.652,122 L38.776,125 L36.472,125 L34.612,122.324 L33.316,122.324 L33.316,125 L31.444,125 L31.444,116.612 L34.624,116.612 C35.9280065,116.612 36.8579972,116.831998 37.414,117.272 C37.9700028,117.712002 38.248,118.419995 38.248,119.396 Z M35.992,120.392 C36.2240012,120.183999 36.34,119.854002 36.34,119.402 C36.34,118.949998 36.2200012,118.640001 35.98,118.472 C35.7399988,118.303999 35.320003,118.22 34.72,118.22 L33.316,118.22 L33.316,120.704 L34.684,120.704 C35.3240032,120.704 35.7599988,120.600001 35.992,120.392 Z M46.784,118.844 C46.3039976,118.315997 45.7140035,118.052 45.014,118.052 C44.3139965,118.052 43.7240024,118.315997 43.244,118.844 C42.7639976,119.372003 42.524,120.009996 42.524,120.758 C42.524,121.506004 42.7639976,122.141997 43.244,122.666 C43.7240024,123.190003 44.3139965,123.452 45.014,123.452 C45.7140035,123.452 46.3039976,123.190003 46.784,122.666 C47.2640024,122.141997 47.504,121.506004 47.504,120.758 C47.504,120.009996 47.2640024,119.372003 46.784,118.844 Z M45.008,125.084 C43.7679938,125.084 42.7240042,124.670004 41.876,123.842 C41.0279958,123.013996 40.604,121.984006 40.604,120.752 C40.604,119.519994 41.0279958,118.490004 41.876,117.662 C42.7240042,116.833996 43.7679938,116.42 45.008,116.42 C46.2480062,116.42 47.2919958,116.833996 48.14,117.662 C48.9880042,118.490004 49.412,119.519994 49.412,120.752 C49.412,121.984006 48.9880042,123.013996 48.14,123.842 C47.2919958,124.670004 46.2480062,125.084 45.008,125.084 Z M59.508,119.72 L57.24,124.304 L56.124,124.304 L53.868,119.72 L53.868,125 L51.996,125 L51.996,116.612 L54.528,116.612 L56.688,121.22 L58.86,116.612 L61.38,116.612 L61.38,125 L59.508,125 L59.508,119.72 Z M73.82,116.612 L75.692,116.612 L75.692,125 L73.82,125 L73.82,121.7 L70.484,121.7 L70.484,125 L68.612,125 L68.612,116.612 L70.484,116.612 L70.484,120.116 L73.82,120.116 L73.82,116.612 Z M84.456,118.844 C83.9759976,118.315997 83.3860035,118.052 82.686,118.052 C81.9859965,118.052 81.3960024,118.315997 80.916,118.844 C80.4359976,119.372003 80.196,120.009996 80.196,120.758 C80.196,121.506004 80.4359976,122.141997 80.916,122.666 C81.3960024,123.190003 81.9859965,123.452 82.686,123.452 C83.3860035,123.452 83.9759976,123.190003 84.456,122.666 C84.9360024,122.141997 85.176,121.506004 85.176,120.758 C85.176,120.009996 84.9360024,119.372003 84.456,118.844 Z M82.68,125.084 C81.4399938,125.084 80.3960042,124.670004 79.548,123.842 C78.6999958,123.013996 78.276,121.984006 78.276,120.752 C78.276,119.519994 78.6999958,118.490004 79.548,117.662 C80.3960042,116.833996 81.4399938,116.42 82.68,116.42 C83.9200062,116.42 84.9639958,116.833996 85.812,117.662 C86.6600042,118.490004 87.084,119.519994 87.084,120.752 C87.084,121.984006 86.6600042,123.013996 85.812,123.842 C84.9639958,124.670004 83.9200062,125.084 82.68,125.084 Z M97.18,119.72 L94.912,124.304 L93.796,124.304 L91.54,119.72 L91.54,125 L89.668,125 L89.668,116.612 L92.2,116.612 L94.36,121.22 L96.532,116.612 L99.052,116.612 L99.052,125 L97.18,125 L97.18,119.72 Z M108.164,116.612 L108.164,118.28 L103.988,118.28 L103.988,120.008 L107.744,120.008 L107.744,121.604 L103.988,121.604 L103.988,123.344 L108.296,123.344 L108.296,125 L102.116,125 L102.116,116.612 L108.164,116.612 Z" id="FROM-HOME" fill="#FFFFFF"></path>
                </g>
            </g>
        </g>
    </g>
</svg>