<?xml version="1.0" encoding="UTF-8"?>
<svg width="132px" height="132px" viewBox="0 0 132 132" version="1.1" xmlns="http://www.w3.org/2000/svg" xmlns:xlink="http://www.w3.org/1999/xlink">
    <!-- Generator: sketchtool 42 (36781) - http://www.bohemiancoding.com/sketch -->
    <title>463D60A4-95E8-492E-A8D0-DBC6B117597C</title>
    <desc>Created with sketchtool.</desc>
    <defs></defs>
    <g id="Page-1" stroke="none" stroke-width="1" fill="none" fill-rule="evenodd">
        <g id="glamour-floring-home" transform="translate(-575.000000, -949.000000)">
            <g id="Icon1-Copy" transform="translate(495.000000, 949.000000)">
                <g id="Group-5" transform="translate(80.000000, 0.000000)">
                    <rect id="Rectangle-3" fill="#C01F1F" x="0" y="0" width="132" height="132" rx="20"></rect>
                    <text id="ion-calendar---Ionicons" font-family="Ionicons" font-size="100" font-weight="400" fill="#FFFFFF">
                        <tspan x="23.25" y="100"></tspan>
                    </text>
                    <rect id="Rectangle-4" fill="#FFFFFF" transform="translate(84.763759, 85.818569) rotate(-12.000000) translate(-84.763759, -85.818569) " x="43.8896013" y="63.8756002" width="81.7483157" height="43.8859379"></rect>
                    <path d="M62.6514276,77.8811812 L60.3834276,82.4651812 L59.2674276,82.4651812 L57.0114276,77.8811812 L57.0114276,83.1611812 L55.1394276,83.1611812 L55.1394276,74.7731812 L57.6714276,74.7731812 L59.8314276,79.3811812 L62.0034276,74.7731812 L64.5234276,74.7731812 L64.5234276,83.1611812 L62.6514276,83.1611812 L62.6514276,77.8811812 Z M72.2874276,77.0051812 C71.8074252,76.4771786 71.2174311,76.2131812 70.5174276,76.2131812 C69.8174241,76.2131812 69.22743,76.4771786 68.7474276,77.0051812 C68.2674252,77.5331839 68.0274276,78.1711775 68.0274276,78.9191812 C68.0274276,79.667185 68.2674252,80.3031786 68.7474276,80.8271812 C69.22743,81.3511838 69.8174241,81.6131812 70.5174276,81.6131812 C71.2174311,81.6131812 71.8074252,81.3511838 72.2874276,80.8271812 C72.76743,80.3031786 73.0074276,79.667185 73.0074276,78.9191812 C73.0074276,78.1711775 72.76743,77.5331839 72.2874276,77.0051812 Z M70.5114276,83.2451812 C69.2714214,83.2451812 68.2274318,82.8311854 67.3794276,82.0031812 C66.5314234,81.1751771 66.1074276,80.1451874 66.1074276,78.9131812 C66.1074276,77.6811751 66.5314234,76.6511854 67.3794276,75.8231812 C68.2274318,74.9951771 69.2714214,74.5811812 70.5114276,74.5811812 C71.7514338,74.5811812 72.7954234,74.9951771 73.6434276,75.8231812 C74.4914318,76.6511854 74.9154276,77.6811751 74.9154276,78.9131812 C74.9154276,80.1451874 74.4914318,81.1751771 73.6434276,82.0031812 C72.7954234,82.8311854 71.7514338,83.2451812 70.5114276,83.2451812 Z M82.3674276,74.7731812 L84.2394276,74.7731812 L84.2394276,83.1611812 L82.3674276,83.1611812 L78.3714276,77.9051812 L78.3714276,83.1611812 L76.4994276,83.1611812 L76.4994276,74.7731812 L78.2514276,74.7731812 L82.3674276,80.1731812 L82.3674276,74.7731812 Z M89.8554276,76.3931812 L89.8554276,83.1611812 L87.9834276,83.1611812 L87.9834276,76.3931812 L85.6074276,76.3931812 L85.6074276,74.7731812 L92.2314276,74.7731812 L92.2314276,76.3931812 L89.8554276,76.3931812 Z M98.8074276,74.7731812 L100.679428,74.7731812 L100.679428,83.1611812 L98.8074276,83.1611812 L98.8074276,79.8611812 L95.4714276,79.8611812 L95.4714276,83.1611812 L93.5994276,83.1611812 L93.5994276,74.7731812 L95.4714276,74.7731812 L95.4714276,78.2771812 L98.8074276,78.2771812 L98.8074276,74.7731812 Z M102.743428,83.1611812 L102.743428,74.7731812 L104.615428,74.7731812 L104.615428,81.4931812 L108.191428,81.4931812 L108.191428,83.1611812 L102.743428,83.1611812 Z M113.171428,83.1611812 L111.299428,83.1611812 L111.299428,79.8491812 L108.395428,74.7731812 L110.423428,74.7731812 L112.235428,77.8931812 L114.047428,74.7731812 L116.075428,74.7731812 L113.171428,79.8491812 L113.171428,83.1611812 Z M58.1394276,89.4471812 C57.9594267,89.595182 57.8694276,89.79118 57.8694276,90.0351812 C57.8694276,90.2791824 57.9794265,90.4731805 58.1994276,90.6171812 C58.4194287,90.7611819 58.9274236,90.9311802 59.7234276,91.1271812 C60.5194316,91.3231822 61.1374254,91.6171793 61.5774276,92.0091812 C62.0174298,92.4011832 62.2374276,92.9731775 62.2374276,93.7251812 C62.2374276,94.477185 61.9554304,95.0871789 61.3914276,95.5551812 C60.8274248,96.0231836 60.0854322,96.2571812 59.1654276,96.2571812 C57.837421,96.2571812 56.6414329,95.7651861 55.5774276,94.7811812 L56.6934276,93.4131812 C57.5974321,94.2051852 58.4334238,94.6011812 59.2014276,94.6011812 C59.5454293,94.6011812 59.8154266,94.527182 60.0114276,94.3791812 C60.2074286,94.2311805 60.3054276,94.0311825 60.3054276,93.7791812 C60.3054276,93.52718 60.2014286,93.327182 59.9934276,93.1791812 C59.7854266,93.0311805 59.3734307,92.881182 58.7574276,92.7291812 C57.7814227,92.4971801 57.0674299,92.1951831 56.6154276,91.8231812 C56.1634253,91.4511794 55.9374276,90.8671852 55.9374276,90.0711812 C55.9374276,89.2751772 56.2234247,88.6611834 56.7954276,88.2291812 C57.3674305,87.7971791 58.0814233,87.5811812 58.9374276,87.5811812 C59.4974304,87.5811812 60.0574248,87.6771803 60.6174276,87.8691812 C61.1774304,88.0611822 61.6654255,88.3331795 62.0814276,88.6851812 L61.1334276,90.0531812 C60.405424,89.5011785 59.6534315,89.2251812 58.8774276,89.2251812 C58.565426,89.2251812 58.3194285,89.2991805 58.1394276,89.4471812 Z M69.6114276,88.5231812 C70.1994305,89.0231837 70.4934276,89.791176 70.4934276,90.8271812 C70.4934276,91.8631864 70.1914306,92.6211788 69.5874276,93.1011812 C68.9834246,93.5811836 68.0614338,93.8211812 66.8214276,93.8211812 L65.7054276,93.8211812 L65.7054276,96.1611812 L63.8334276,96.1611812 L63.8334276,87.7731812 L66.7974276,87.7731812 C68.085434,87.7731812 69.0234247,88.0231787 69.6114276,88.5231812 Z M68.2374276,91.8231812 C68.4614287,91.57118 68.5734276,91.2031836 68.5734276,90.7191812 C68.5734276,90.2351788 68.4274291,89.8911822 68.1354276,89.6871812 C67.8434261,89.4831802 67.3894307,89.3811812 66.7734276,89.3811812 L65.7054276,89.3811812 L65.7054276,92.2011812 L66.9654276,92.2011812 C67.5894307,92.2011812 68.0134265,92.0751825 68.2374276,91.8231812 Z M78.0054276,87.7731812 L78.0054276,89.4411812 L73.8294276,89.4411812 L73.8294276,91.1691812 L77.5854276,91.1691812 L77.5854276,92.7651812 L73.8294276,92.7651812 L73.8294276,94.5051812 L78.1374276,94.5051812 L78.1374276,96.1611812 L71.9574276,96.1611812 L71.9574276,87.7731812 L78.0054276,87.7731812 Z M83.6574276,94.5051812 C84.5774322,94.5051812 85.3294247,94.1411849 85.9134276,93.4131812 L87.1134276,94.6491812 C86.1614228,95.7211866 85.0394341,96.2571812 83.7474276,96.2571812 C82.4554211,96.2571812 81.3914318,95.8491853 80.5554276,95.0331812 C79.7194234,94.2171771 79.3014276,93.1871874 79.3014276,91.9431812 C79.3014276,90.699175 79.7274233,89.6611854 80.5794276,88.8291812 C81.4314319,87.9971771 82.4734214,87.5811812 83.7054276,87.5811812 C85.0814345,87.5811812 86.233423,88.105176 87.1614276,89.1531812 L85.9974276,90.4731812 C85.4054246,89.7371775 84.669432,89.3691812 83.7894276,89.3691812 C83.0854241,89.3691812 82.4834301,89.5991789 81.9834276,90.0591812 C81.4834251,90.5191835 81.2334276,91.1391773 81.2334276,91.9191812 C81.2334276,92.6991851 81.4694252,93.3251789 81.9414276,93.7971812 C82.41343,94.2691836 82.9854242,94.5051812 83.6574276,94.5051812 Z M88.5894276,87.7731812 L90.4614276,87.7731812 L90.4614276,96.1611812 L88.5894276,96.1611812 L88.5894276,87.7731812 Z M98.5014276,96.1611812 L97.7214276,94.3491812 L94.2054276,94.3491812 L93.4254276,96.1611812 L91.4334276,96.1611812 L95.0574276,87.7731812 L96.8694276,87.7731812 L100.493428,96.1611812 L98.5014276,96.1611812 Z M95.9694276,90.2691812 L94.9134276,92.7051812 L97.0134276,92.7051812 L95.9694276,90.2691812 Z M101.465428,96.1611812 L101.465428,87.7731812 L103.337428,87.7731812 L103.337428,94.4931812 L106.913428,94.4931812 L106.913428,96.1611812 L101.465428,96.1611812 Z M110.243428,89.4471812 C110.063427,89.595182 109.973428,89.79118 109.973428,90.0351812 C109.973428,90.2791824 110.083427,90.4731805 110.303428,90.6171812 C110.523429,90.7611819 111.031424,90.9311802 111.827428,91.1271812 C112.623432,91.3231822 113.241425,91.6171793 113.681428,92.0091812 C114.12143,92.4011832 114.341428,92.9731775 114.341428,93.7251812 C114.341428,94.477185 114.05943,95.0871789 113.495428,95.5551812 C112.931425,96.0231836 112.189432,96.2571812 111.269428,96.2571812 C109.941421,96.2571812 108.745433,95.7651861 107.681428,94.7811812 L108.797428,93.4131812 C109.701432,94.2051852 110.537424,94.6011812 111.305428,94.6011812 C111.649429,94.6011812 111.919427,94.527182 112.115428,94.3791812 C112.311429,94.2311805 112.409428,94.0311825 112.409428,93.7791812 C112.409428,93.52718 112.305429,93.327182 112.097428,93.1791812 C111.889427,93.0311805 111.477431,92.881182 110.861428,92.7291812 C109.885423,92.4971801 109.17143,92.1951831 108.719428,91.8231812 C108.267425,91.4511794 108.041428,90.8671852 108.041428,90.0711812 C108.041428,89.2751772 108.327425,88.6611834 108.899428,88.2291812 C109.47143,87.7971791 110.185423,87.5811812 111.041428,87.5811812 C111.60143,87.5811812 112.161425,87.6771803 112.721428,87.8691812 C113.28143,88.0611822 113.769426,88.3331795 114.185428,88.6851812 L113.237428,90.0531812 C112.509424,89.5011785 111.757431,89.2251812 110.981428,89.2251812 C110.669426,89.2251812 110.423429,89.2991805 110.243428,89.4471812 Z" id="MONTHLY-SPECIALS" fill="#C01F1F" transform="translate(85.607428, 85.419181) rotate(-12.000000) translate(-85.607428, -85.419181) "></path>
                </g>
            </g>
        </g>
    </g>
</svg>