<?xml version="1.0" encoding="UTF-8"?>
<svg width="132px" height="132px" viewBox="0 0 132 132" version="1.1" xmlns="http://www.w3.org/2000/svg" xmlns:xlink="http://www.w3.org/1999/xlink">
    <!-- Generator: sketchtool 42 (36781) - http://www.bohemiancoding.com/sketch -->
    <title>C734433F-8C8F-41FA-BABE-6452C2CE02C3</title>
    <desc>Created with sketchtool.</desc>
    <defs></defs>
    <g id="Page-1" stroke="none" stroke-width="1" fill="none" fill-rule="evenodd">
        <g id="glamour-floring-home" transform="translate(-892.000000, -949.000000)">
            <g id="Icon1-Copy-2" transform="translate(813.000000, 949.000000)">
                <g id="Group-5" transform="translate(79.000000, 0.000000)">
                    <rect id="Rectangle-3" fill="#C01F1F" x="0" y="0" width="132" height="132" rx="20"></rect>
                    <text id="ion-chatboxes---Ionicons" font-family="Ionicons" font-size="100" font-weight="400" fill="#FFFFFF">
                        <tspan x="26.375" y="104"></tspan>
                    </text>
                    <path d="M54.088,60.396 C54.088,61.7400067 53.5560053,62.607998 52.492,63 L54.616,66 L52.312,66 L50.452,63.324 L49.156,63.324 L49.156,66 L47.284,66 L47.284,57.612 L50.464,57.612 C51.7680065,57.612 52.6979972,57.8319978 53.254,58.272 C53.8100028,58.7120022 54.088,59.4199951 54.088,60.396 Z M51.832,61.392 C52.0640012,61.183999 52.18,60.8540023 52.18,60.402 C52.18,59.9499977 52.0600012,59.6400008 51.82,59.472 C51.5799988,59.3039992 51.160003,59.22 50.56,59.22 L49.156,59.22 L49.156,61.704 L50.524,61.704 C51.1640032,61.704 51.5999988,61.600001 51.832,61.392 Z M62.056,57.612 L62.056,59.28 L57.88,59.28 L57.88,61.008 L61.636,61.008 L61.636,62.604 L57.88,62.604 L57.88,64.344 L62.188,64.344 L62.188,66 L56.008,66 L56.008,57.612 L62.056,57.612 Z M66.952,62.952 L69.088,57.612 L71.116,57.612 L67.744,66 L66.16,66 L62.788,57.612 L64.816,57.612 L66.952,62.952 Z M72.112,57.612 L73.984,57.612 L73.984,66 L72.112,66 L72.112,57.612 Z M82.096,57.612 L82.096,59.28 L77.92,59.28 L77.92,61.008 L81.676,61.008 L81.676,62.604 L77.92,62.604 L77.92,64.344 L82.228,64.344 L82.228,66 L76.048,66 L76.048,57.612 L82.096,57.612 Z M86.512,62.436 L88,57.612 L89.956,57.612 L91.432,62.436 L93.1,57.612 L95.128,57.612 L92.2,66 L90.808,66 L88.972,60.168 L87.148,66 L85.756,66 L82.828,57.612 L84.856,57.612 L86.512,62.436 Z M98.086,59.286 C97.9059991,59.4340007 97.816,59.6299988 97.816,59.874 C97.816,60.1180012 97.9259989,60.3119993 98.146,60.456 C98.3660011,60.6000007 98.873996,60.769999 99.67,60.966 C100.466004,61.162001 101.083998,61.455998 101.524,61.848 C101.964002,62.240002 102.184,62.8119962 102.184,63.564 C102.184,64.3160038 101.902003,64.9259977 101.338,65.394 C100.773997,65.8620023 100.032005,66.096 99.112,66.096 C97.7839934,66.096 96.5880053,65.6040049 95.524,64.62 L96.64,63.252 C97.5440045,64.044004 98.3799962,64.44 99.148,64.44 C99.4920017,64.44 99.761999,64.3660007 99.958,64.218 C100.154001,64.0699993 100.252,63.8700013 100.252,63.618 C100.252,63.3659987 100.148001,63.1660007 99.94,63.018 C99.731999,62.8699993 99.3200031,62.7200008 98.704,62.568 C97.7279951,62.3359988 97.0140023,62.0340019 96.562,61.662 C96.1099977,61.2899981 95.884,60.706004 95.884,59.91 C95.884,59.113996 96.1699971,58.5000022 96.742,58.068 C97.3140029,57.6359978 98.0279957,57.42 98.884,57.42 C99.4440028,57.42 100.003997,57.515999 100.564,57.708 C101.124003,57.900001 101.611998,58.1719982 102.028,58.524 L101.08,59.892 C100.351996,59.3399972 99.6000039,59.064 98.824,59.064 C98.5119984,59.064 98.2660009,59.1379993 98.086,59.286 Z" id="reviews" fill="#C01F1F"></path>
                    <text id="" font-family="Ionicons" font-size="14" font-weight="400" fill="#C01F1F">
                        <tspan x="47.3828125" y="52"></tspan>
                    </text>
                </g>
            </g>
        </g>
    </g>
</svg>