<?xml version="1.0" encoding="UTF-8"?>
<svg width="34px" height="34px" viewBox="0 0 34 34" version="1.1" xmlns="http://www.w3.org/2000/svg" xmlns:xlink="http://www.w3.org/1999/xlink">
    <!-- Generator: sketchtool 42 (36781) - http://www.bohemiancoding.com/sketch -->
    <title>8C227908-BDA5-4A4D-9B3B-E86E3303293F</title>
    <desc>Created with sketchtool.</desc>
    <defs></defs>
    <g id="Page-1" stroke="none" stroke-width="1" fill="none" fill-rule="evenodd">
        <g id="glamour-floring-home" transform="translate(-918.000000, -2472.000000)" fill="#C01F1F">
            <g id="Group-12" transform="translate(178.000000, 2469.000000)">
                <path d="M759.36,30.16 C760.906674,29.8666652 762.146662,29.3066708 763.08,28.48 C764.093338,27.546662 764.6,26.3600072 764.6,24.92 C764.6,23.0266572 763.853341,21.5066724 762.36,20.36 C761.266661,19.559996 759.666677,18.893336 757.56,18.36 C755.933325,17.959998 754.78667,17.493336 754.12,16.96 C753.479997,16.4799976 753.16,15.8800036 753.16,15.16 C753.16,14.359996 753.519996,13.7000026 754.24,13.18 C754.960004,12.6599974 755.933327,12.4 757.16,12.4 C759.533345,12.4 760.76,13.4533228 760.84,15.56 L764.12,15.56 C764.066666,14.1999932 763.653337,13.0400048 762.88,12.08 C762.053329,11.0399948 760.880008,10.320002 759.36,9.92 L759.36,6.64 L754.88,6.64 L754.88,9.92 C753.359992,10.2666684 752.146671,10.8666624 751.24,11.72 C750.226662,12.6800048 749.72,13.8533264 749.72,15.24 C749.72,16.8666748 750.359994,18.1866616 751.64,19.2 C752.760006,20.0800044 754.439989,20.786664 756.68,21.32 C758.413342,21.720002 759.626663,22.25333 760.32,22.92 C760.880003,23.453336 761.16,24.119996 761.16,24.92 C761.16,25.58667 760.906669,26.1466644 760.4,26.6 C759.706663,27.2400032 758.633341,27.56 757.18,27.56 C755.726659,27.56 754.62667,27.2533364 753.88,26.64 C753.186663,26.106664 752.8,25.373338 752.72,24.44 L749.44,24.44 C749.52,25.9600076 750.093328,27.2133284 751.16,28.2 C752.120005,29.1066712 753.359992,29.7333316 754.88,30.08 L754.88,33.36 L759.36,33.36 L759.36,30.16 Z M757,3.36 C760.040015,3.36 762.85332,4.1199924 765.44,5.64 C767.946679,7.0800072 769.919993,9.0533208 771.36,11.56 C772.880008,14.1466796 773.64,16.9599848 773.64,20 C773.64,23.0400152 772.880008,25.8533204 771.36,28.44 C769.919993,30.9466792 767.946679,32.9199928 765.44,34.36 C762.85332,35.8800076 760.040015,36.64 757,36.64 C753.959985,36.64 751.14668,35.8800076 748.56,34.36 C746.053321,32.893326 744.080007,30.9066792 742.64,28.4 C741.119992,25.8133204 740.36,23.0133484 740.36,20 C740.36,16.9866516 741.119992,14.1866796 742.64,11.6 C744.106674,9.0933208 746.093321,7.106674 748.6,5.64 C751.18668,4.1199924 753.986652,3.36 757,3.36 Z" id="icon-financing-small"></path>
            </g>
        </g>
    </g>
</svg>