<?xml version="1.0" encoding="UTF-8"?>
<svg width="28px" height="19px" viewBox="0 0 28 19" version="1.1" xmlns="http://www.w3.org/2000/svg" xmlns:xlink="http://www.w3.org/1999/xlink">
    <!-- Generator: sketchtool 41.2 (35397) - http://www.bohemiancoding.com/sketch -->
    <title>7409B3E7-F998-4988-A310-9844CC05E6D7</title>
    <desc>Created with sketchtool.</desc>
    <defs></defs>
    <g id="Page-1" stroke="none" stroke-width="1" fill="none" fill-rule="evenodd">
        <g id="Metal-Roofing-Experts---home-page" transform="translate(-227.000000, -2853.000000)" fill="#FFFFFF">
            <g id="Testimonials" transform="translate(-2619.000000, 2688.000000)">
                <g id="Group-5" transform="translate(2846.000000, 70.000000)">
                    <path d="M3.46875,99.9492188 C5.14453963,97.8867084 7.01366156,96.3867234 9.07617188,95.4492188 L9.74414062,96.8554688 C8.10350742,97.7929734 6.7031308,98.9589774 5.54296875,100.353516 C4.3828067,101.748054 3.80273438,103.160149 3.80273438,104.589844 C3.80273438,104.871095 3.89062412,105.082031 4.06640625,105.222656 C4.24218838,105.363282 4.47070172,105.433594 4.75195312,105.433594 C6.27539824,105.26953 7.09570254,105.1875 7.21289062,105.1875 C7.98633199,105.1875 8.82421424,105.468747 9.7265625,106.03125 C10.6289108,106.593753 11.0800781,107.554681 11.0800781,108.914062 C11.0800781,110.062506 10.7050819,111.035152 9.95507812,111.832031 C9.20507437,112.62891 8.13867879,113.027344 6.75585938,113.027344 C5.13866379,113.027344 3.76758375,112.400397 2.64257812,111.146484 C1.5175725,109.892572 0.955078125,108.304697 0.955078125,106.382812 C0.955078125,104.156239 1.79296037,102.011729 3.46875,99.9492188 Z M20.0273438,99.8613281 C21.726571,97.8339742 23.5839743,96.3632858 25.5996094,95.4492188 L26.2675781,96.8554688 C24.6269449,97.7929734 23.2265683,98.9472588 22.0664062,100.318359 C20.9062442,101.68946 20.3261719,103.089837 20.3261719,104.519531 C20.3261719,104.777345 20.3964837,104.99414 20.5371094,105.169922 C20.6777351,105.345704 20.9238264,105.433594 21.2753906,105.433594 C22.7753981,105.26953 23.5957024,105.1875 23.7363281,105.1875 C24.60352,105.1875 25.4648395,105.498044 26.3203125,106.119141 C27.1757855,106.740237 27.6035156,107.66015 27.6035156,108.878906 C27.6035156,109.839849 27.2695346,110.77148 26.6015625,111.673828 C25.9335904,112.576176 24.814461,113.027344 23.2441406,113.027344 C21.5566322,113.027344 20.1738335,112.37696 19.0957031,111.076172 C18.0175727,109.775384 17.4785156,108.304696 17.4785156,106.664062 C17.4785156,104.156237 18.3281165,101.888682 20.0273438,99.8613281 Z" id="quotes-symbol"></path>
                </g>
            </g>
        </g>
    </g>
</svg>